<svg xmlns="http://www.w3.org/2000/svg" xmlns:xlink="http://www.w3.org/1999/xlink" width="80" height="80" viewBox="0 0 80 80">
  <defs>
    <clipPath id="clip-path">
      <path id="Union_1" data-name="Union 1" d="M1.8,40.758A3.045,3.045,0,0,1,0,37.936V7.549A3.047,3.047,0,0,1,3.089,4.5a3.273,3.273,0,0,1,.991.155,29.062,29.062,0,0,0,8.874,1.314C24.751,5.971,36.548,0,48.346,0A28.368,28.368,0,0,1,59.5,2.151h0A3.05,3.05,0,0,1,61.3,4.974V35.361a3.048,3.048,0,0,1-3.089,3.047,3.258,3.258,0,0,1-.991-.155,29.083,29.083,0,0,0-8.874-1.314c-11.8,0-23.595,5.972-35.392,5.972A28.352,28.352,0,0,1,1.8,40.758Zm17.128-19.3A11.718,11.718,0,1,0,30.651,9.737,11.718,11.718,0,0,0,18.932,21.455ZM32.182,26.9a.89.89,0,0,1-.3-.693v-6.33a.946.946,0,0,1,.284-.717,1.057,1.057,0,0,1,.765-.271,1.1,1.1,0,0,1,.741.241.912.912,0,0,1,.32.639,1.736,1.736,0,0,1,.741-.663,2.544,2.544,0,0,1,2.436.151,2.6,2.6,0,0,1,.928,1.1,3.81,3.81,0,0,1,.332,1.628,3.686,3.686,0,0,1-.332,1.61,2.424,2.424,0,0,1-2.285,1.441,2.377,2.377,0,0,1-1.043-.229,1.846,1.846,0,0,1-.741-.615v2.05a.853.853,0,0,1-.289.675,1.114,1.114,0,0,1-.76.253A1.144,1.144,0,0,1,32.182,26.9Zm2.11-6.047a1.768,1.768,0,0,0-.3,1.109,1.718,1.718,0,0,0,.3,1.091,1.042,1.042,0,0,0,.868.38,1.018,1.018,0,0,0,.85-.374,1.7,1.7,0,0,0,.3-1.073,1.822,1.822,0,0,0-.3-1.127,1.136,1.136,0,0,0-1.712-.006Zm-5.028,4.064a1.205,1.205,0,0,1-.434-.4l-1.568-2.291a1.237,1.237,0,0,0-.355-.355.823.823,0,0,0-.44-.115h-.784v2.159a1.1,1.1,0,0,1-.289.8,1.062,1.062,0,0,1-.8.3,1.019,1.019,0,0,1-1.1-1.1V17.461a.926.926,0,0,1,1.025-1.025h3.026a3.477,3.477,0,0,1,2.321.669,2.413,2.413,0,0,1,.778,1.935,2.546,2.546,0,0,1-.531,1.634,2.6,2.6,0,0,1-1.5.9,1.637,1.637,0,0,1,.693.265,2.475,2.475,0,0,1,.585.615l.748,1.073a1.121,1.121,0,0,1,.217.615.8.8,0,0,1-.32.645,1.142,1.142,0,0,1-.741.259A1.156,1.156,0,0,1,29.264,24.913ZM25.659,20.09H27.2a1.86,1.86,0,0,0,1.055-.229.857.857,0,0,0,.319-.747.888.888,0,0,0-.319-.766,1.822,1.822,0,0,0-1.055-.235H25.659Z" transform="translate(0 0)" fill="#2680eb" stroke="rgba(0,0,0,0)" stroke-miterlimit="10" stroke-width="1"/>
    </clipPath>
  </defs>
  <g id="icon-keuangan" transform="translate(-368.441 -462.442)">
    <g id="icon-tata-usaha" transform="translate(368.443 462.442)">
      <circle id="Ellipse_84" data-name="Ellipse 84" cx="40" cy="40" r="40" transform="translate(-0.002 0)" fill="#d9eeff" opacity="0.7"/>
    </g>
    <g id="Group_717" data-name="Group 717" transform="translate(377.793 480.986)">
      <path id="Path_279" data-name="Path 279" d="M792.184,336.049a2.479,2.479,0,0,0-.585-.615,1.628,1.628,0,0,0-.693-.265,2.6,2.6,0,0,0,1.5-.9,2.549,2.549,0,0,0,.53-1.634,2.413,2.413,0,0,0-.778-1.935,3.478,3.478,0,0,0-2.321-.669h-3.026a.926.926,0,0,0-1.025,1.025v6.451a1.02,1.02,0,0,0,1.1,1.1,1.063,1.063,0,0,0,.8-.3,1.1,1.1,0,0,0,.289-.8v-2.158h.784a.826.826,0,0,1,.44.115,1.246,1.246,0,0,1,.356.356l1.567,2.291a1.2,1.2,0,0,0,.434.4,1.185,1.185,0,0,0,1.284-.126.8.8,0,0,0,.319-.645,1.121,1.121,0,0,0-.217-.615Zm-1.646-2.592a1.856,1.856,0,0,1-1.055.229H787.94v-1.977h1.543a1.818,1.818,0,0,1,1.055.235.888.888,0,0,1,.32.766A.857.857,0,0,1,790.538,333.456Z" transform="translate(-762.281 -313.595)" fill="#2680eb"/>
      <path id="Path_280" data-name="Path 280" d="M878.558,355.727a2.54,2.54,0,0,0-2.436-.151,1.733,1.733,0,0,0-.742.663.913.913,0,0,0-.32-.639,1.1,1.1,0,0,0-.742-.241,1.06,1.06,0,0,0-.766.271.947.947,0,0,0-.283.717v6.33a.891.891,0,0,0,.3.693,1.144,1.144,0,0,0,.8.271,1.111,1.111,0,0,0,.76-.253.853.853,0,0,0,.289-.675v-2.05a1.844,1.844,0,0,0,.742.615,2.376,2.376,0,0,0,1.043.229,2.427,2.427,0,0,0,2.285-1.441,3.691,3.691,0,0,0,.332-1.61,3.812,3.812,0,0,0-.332-1.628A2.594,2.594,0,0,0,878.558,355.727Zm-1.157,3.8a1.02,1.02,0,0,1-.85.374,1.043,1.043,0,0,1-.868-.38,1.721,1.721,0,0,1-.3-1.091,1.771,1.771,0,0,1,.3-1.109,1.137,1.137,0,0,1,1.712.006,1.821,1.821,0,0,1,.3,1.127A1.7,1.7,0,0,1,877.4,359.531Z" transform="translate(-841.391 -336.475)" fill="#2680eb"/>
      <path id="Path_281" data-name="Path 281" d="M599.923,160.583h0a28.362,28.362,0,0,0-11.15-2.151c-11.8,0-23.594,5.971-35.391,5.971a29.059,29.059,0,0,1-8.874-1.314,3.278,3.278,0,0,0-.991-.155,3.048,3.048,0,0,0-3.089,3.047v30.388a3.046,3.046,0,0,0,1.8,2.822,28.35,28.35,0,0,0,11.15,2.152c11.8,0,23.595-5.972,35.392-5.972a29.064,29.064,0,0,1,8.874,1.314,3.272,3.272,0,0,0,.991.155,3.048,3.048,0,0,0,3.089-3.047V163.406A3.05,3.05,0,0,0,599.923,160.583Zm-28.845,31.022A11.719,11.719,0,1,1,582.8,179.887,11.719,11.719,0,0,1,571.078,191.606Z" transform="translate(-540.427 -158.431)" fill="#2680eb"/>
    </g>
    <g id="Mask_Group_3" data-name="Mask Group 3" transform="translate(377.792 480.985)" clip-path="url(#clip-path)">
      <ellipse id="Ellipse_94" data-name="Ellipse 94" cx="29.734" cy="28.644" rx="29.734" ry="28.644" transform="translate(-28.954 -22.115)" fill="#6bb1fe" opacity="0.5"/>
    </g>
  </g>
</svg>
