<svg xmlns="http://www.w3.org/2000/svg" xmlns:xlink="http://www.w3.org/1999/xlink" width="100" height="100" viewBox="0 0 100 100">
  <defs>
    <clipPath id="clip-path">
      <path id="Path_252" data-name="Path 252" d="M470.051,205.357l-37.384-11.485a10.7,10.7,0,0,0-6.271,0L389.01,205.357a3.155,3.155,0,0,0,0,6.11l6.518,2a10.563,10.563,0,0,0-2.4,6.286,4.135,4.135,0,0,0-.342,7.105l-3.421,15.4a2.144,2.144,0,0,0,2.092,2.609h7.52a2.145,2.145,0,0,0,2.094-2.609l-3.422-15.4a4.125,4.125,0,0,0-.241-7.039,6.321,6.321,0,0,1,2.773-4.921l26.211,8.053a10.72,10.72,0,0,0,6.271,0l37.385-11.486a3.156,3.156,0,0,0,0-6.112Zm-36.126,21.7a15,15,0,0,1-8.79,0l-19.436-5.97-1.9,15.206c0,4.738,11.52,8.578,25.732,8.578s25.732-3.84,25.732-8.578l-1.9-15.207Z" transform="translate(-386.644 -193.403)" fill="none"/>
    </clipPath>
  </defs>
  <g id="icon-kurikulum" transform="translate(-368 -462)">
    <circle id="Ellipse_83" data-name="Ellipse 83" cx="50" cy="50" r="50" transform="translate(368 462)" fill="#d9eeff" opacity="0.7"/>
    <g id="Group_601" data-name="Group 601" transform="translate(-11.645 292.598)">
      <path id="Path_251" data-name="Path 251" d="M470.051,205.357l-37.384-11.485a10.7,10.7,0,0,0-6.271,0L389.01,205.357a3.155,3.155,0,0,0,0,6.11l6.518,2a10.563,10.563,0,0,0-2.4,6.286,4.135,4.135,0,0,0-.342,7.105l-3.421,15.4a2.144,2.144,0,0,0,2.092,2.609h7.52a2.145,2.145,0,0,0,2.094-2.609l-3.422-15.4a4.125,4.125,0,0,0-.241-7.039,6.321,6.321,0,0,1,2.773-4.921l26.211,8.053a10.72,10.72,0,0,0,6.271,0l37.385-11.486a3.156,3.156,0,0,0,0-6.112Zm-36.126,21.7a15,15,0,0,1-8.79,0l-19.436-5.97-1.9,15.206c0,4.738,11.52,8.578,25.732,8.578s25.732-3.84,25.732-8.578l-1.9-15.207Z" transform="translate(0)" fill="#2680eb"/>
      <g id="Group_600" data-name="Group 600" transform="translate(386.644 193.403)">
        <g id="Group_599" data-name="Group 599" clip-path="url(#clip-path)">
          <circle id="Ellipse_86" data-name="Ellipse 86" cx="28.013" cy="28.013" r="28.013" transform="translate(-13.377 -18.785)" fill="#6bb1fe" opacity="0.5"/>
        </g>
      </g>
    </g>
  </g>
</svg>
