<svg xmlns="http://www.w3.org/2000/svg" xmlns:xlink="http://www.w3.org/1999/xlink" width="80" height="80" viewBox="0 0 80 80">
  <defs>
    <clipPath id="clip-path">
      <path id="Union_40" data-name="Union 40" d="M17.487,49.67V44.6a3.127,3.127,0,0,1,3.129-3.131h16.1V11.619l1.313-1.447,5.879-6.487c.006.011.021.028.033.044a9.462,9.462,0,0,1,1.921,4.992V41.474H45.8a9.486,9.486,0,0,1-9.411,8.2ZM0,49.67V36.1H5.811a9.179,9.179,0,0,0,9.18-9.182V15.143H30.882l-5.853,6.413c-.021-.011-.042-.022-.065-.031a3.63,3.63,0,1,0,1.494,1.266l6.1-6.657V34.27H21.9a9.829,9.829,0,0,0-9.828,9.821V49.67ZM45.861,8.721c.021.253.031.517.031.775V40.172c0,.264-.01.522-.031.781ZM0,31.69V0H36.392a9.437,9.437,0,0,1,6.2,2.3L36.444,9H8.909V27.263A4.423,4.423,0,0,1,4.481,31.69Z" fill="#2680eb" stroke="rgba(0,0,0,0)" stroke-miterlimit="10" stroke-width="1"/>
    </clipPath>
  </defs>
  <g id="icon-admin-dapodik" transform="translate(-312.899 -672.395)">
    <circle id="Ellipse_83" data-name="Ellipse 83" cx="40" cy="40" r="40" transform="translate(312.899 672.395)" fill="#d9eeff" opacity="0.7"/>
    <g id="Group_1778" data-name="Group 1778" transform="translate(329.95 687.558)">
      <path id="Path_2526" data-name="Path 2526" d="M678.433,1565.991v18.138H667.772a9.824,9.824,0,0,0-9.823,9.824v5.576H645.87v-13.572h5.812a9.18,9.18,0,0,0,9.18-9.181V1565H676.75l-5.848,6.412-.067-.031a3.646,3.646,0,1,0,1.493,1.269Z" transform="translate(-645.87 -1549.859)" fill="#2680eb"/>
      <path id="Path_2527" data-name="Path 2527" d="M1272.977,1918.3v.523h-.057C1272.944,1918.648,1272.963,1918.474,1272.977,1918.3Z" transform="translate(-1227.116 -1877.349)" fill="#2680eb"/>
      <path id="Path_2528" data-name="Path 2528" d="M688.46,1360.018l-6.144,6.7H654.782v18.263a4.428,4.428,0,0,1-4.427,4.427H645.87V1357.72h36.4A9.462,9.462,0,0,1,688.46,1360.018Z" transform="translate(-645.87 -1357.72)" fill="#2680eb"/>
      <path id="Path_2529" data-name="Path 2529" d="M913.635,1413.186v32.229c-.014.176-.033.35-.057.523a9.485,9.485,0,0,1-9.408,8.2H885.26v-5.067a3.131,3.131,0,0,1,3.131-3.131h16.1v-29.853l1.312-1.448,5.879-6.487.031.041A9.446,9.446,0,0,1,913.635,1413.186Z" transform="translate(-867.773 -1404.467)" fill="#2680eb"/>
      <path id="Path_2530" data-name="Path 2530" d="M1273.731,1477.865v30.676c0,.261-.01.521-.031.776v-32.229C1273.721,1477.344,1273.731,1477.6,1273.731,1477.865Z" transform="translate(-1227.839 -1468.369)" fill="#2680eb"/>
      <path id="Path_2531" data-name="Path 2531" d="M846.742,1747.064" transform="translate(-832.069 -1718.623)" fill="#2680eb"/>
    </g>
    <g id="Mask_Group_1319" data-name="Mask Group 1319" transform="translate(329.953 687.558)" clip-path="url(#clip-path)">
      <circle id="Ellipse_304" data-name="Ellipse 304" cx="29.026" cy="29.026" r="29.026" transform="translate(-24.979 -19.041)" fill="#6bb1fe" opacity="0.5"/>
    </g>
  </g>
</svg>
