<svg xmlns="http://www.w3.org/2000/svg" xmlns:xlink="http://www.w3.org/1999/xlink" width="100" height="100" viewBox="0 0 100 100">
  <defs>
    <clipPath id="clip-path">
      <path id="Path_258" data-name="Path 258" d="M1267.265,190.826a8,8,0,1,0-8-8A8,8,0,0,0,1267.265,190.826Zm0,22.016a5.516,5.516,0,0,1,1.706-4l9.019-8.512a5.306,5.306,0,0,1,.7-.446,7.991,7.991,0,0,0-7.424-5.055h-8a8,8,0,0,0-8,8v12a4,4,0,0,0,4,4v16a4,4,0,0,0,4,4h8a4,4,0,0,0,4-4V222.785l-6.3-5.943a5.513,5.513,0,0,1-1.706-4Zm48.013-22.016a8,8,0,1,0-8-8A8,8,0,0,0,1315.277,190.826Zm4,4h-8a7.991,7.991,0,0,0-7.425,5.054,4.792,4.792,0,0,1,.7.449l9.017,8.51a5.548,5.548,0,0,1,.158,7.844c-.052.053-.1.106-.158.158l-6.3,5.946v12.05a4,4,0,0,0,4,4h8a4,4,0,0,0,4-4v-16a4,4,0,0,0,4-4v-12A8,8,0,0,0,1319.278,194.827Zm-8.452,16.922-9.017-8.51a1.5,1.5,0,0,0-2.536,1.09v4.5h-16v-4.5a1.5,1.5,0,0,0-2.535-1.092l-9.018,8.511a1.551,1.551,0,0,0,0,2.184l9.018,8.511a1.5,1.5,0,0,0,2.535-1.092v-4.519h16v4.519a1.5,1.5,0,0,0,2.536,1.092l9.017-8.511A1.55,1.55,0,0,0,1310.826,211.749Z" transform="translate(-1255.262 -174.822)" fill="none"/>
    </clipPath>
  </defs>
  <g id="icon-humas" transform="translate(-368 -462)">
    <circle id="Ellipse_83" data-name="Ellipse 83" cx="50" cy="50" r="50" transform="translate(368 462)" fill="#d9eeff" opacity="0.7"/>
    <g id="Group_610" data-name="Group 610" transform="translate(-873.262 305.178)">
      <path id="Path_257" data-name="Path 257" d="M1267.265,190.826a8,8,0,1,0-8-8A8,8,0,0,0,1267.265,190.826Zm0,22.016a5.516,5.516,0,0,1,1.706-4l9.019-8.512a5.306,5.306,0,0,1,.7-.446,7.991,7.991,0,0,0-7.424-5.055h-8a8,8,0,0,0-8,8v12a4,4,0,0,0,4,4v16a4,4,0,0,0,4,4h8a4,4,0,0,0,4-4V222.785l-6.3-5.943a5.513,5.513,0,0,1-1.706-4Zm48.013-22.016a8,8,0,1,0-8-8A8,8,0,0,0,1315.277,190.826Zm4,4h-8a7.991,7.991,0,0,0-7.425,5.054,4.792,4.792,0,0,1,.7.449l9.017,8.51a5.548,5.548,0,0,1,.158,7.844c-.052.053-.1.106-.158.158l-6.3,5.946v12.05a4,4,0,0,0,4,4h8a4,4,0,0,0,4-4v-16a4,4,0,0,0,4-4v-12A8,8,0,0,0,1319.278,194.827Zm-8.452,16.922-9.017-8.51a1.5,1.5,0,0,0-2.536,1.09v4.5h-16v-4.5a1.5,1.5,0,0,0-2.535-1.092l-9.018,8.511a1.551,1.551,0,0,0,0,2.184l9.018,8.511a1.5,1.5,0,0,0,2.535-1.092v-4.519h16v4.519a1.5,1.5,0,0,0,2.536,1.092l9.017-8.511A1.55,1.55,0,0,0,1310.826,211.749Z" fill="#2680eb"/>
      <g id="Group_609" data-name="Group 609" transform="translate(1255.262 174.822)">
        <g id="Group_608" data-name="Group 608" clip-path="url(#clip-path)">
          <circle id="Ellipse_89" data-name="Ellipse 89" cx="35.432" cy="35.432" r="35.432" transform="translate(-12.003 -24.806)" fill="#6bb1fe" opacity="0.5"/>
        </g>
      </g>
    </g>
  </g>
</svg>
