<svg xmlns="http://www.w3.org/2000/svg" xmlns:xlink="http://www.w3.org/1999/xlink" width="100" height="100" viewBox="0 0 100 100">
  <defs>
    <clipPath id="clip-path">
      <path id="Path_260" data-name="Path 260" d="M1587.088,199.793V181.584a3.85,3.85,0,0,0-3.812-3.813,3.8,3.8,0,0,0-2.38.836l-10.128,8.1a28.909,28.909,0,0,1-17.985,6.307h-22.87a7.623,7.623,0,0,0-7.623,7.623v11.435a7.623,7.623,0,0,0,7.623,7.623h4.014a28.99,28.99,0,0,0-.26,3.811,30.175,30.175,0,0,0,3.045,13.215,3.738,3.738,0,0,0,3.383,2.032h8.848a3.787,3.787,0,0,0,3.085-6.022,15.171,15.171,0,0,1-3.115-9.224,14.417,14.417,0,0,1,.525-3.811h3.345a28.908,28.908,0,0,1,17.984,6.307l10.128,8.1a3.809,3.809,0,0,0,6.191-2.975V212.926a7.561,7.561,0,0,0,0-13.133Z" transform="translate(-1522.29 -177.771)" fill="none"/>
    </clipPath>
  </defs>
  <g id="icon-publikasi" transform="translate(-368 -462)">
    <circle id="Ellipse_83" data-name="Ellipse 83" cx="50" cy="50" r="50" transform="translate(368 462)" fill="#d9eeff" opacity="0.7"/>
    <g id="Group_613" data-name="Group 613" transform="translate(-1138.709 303.635)">
      <path id="Path_259" data-name="Path 259" d="M1587.088,199.793V181.584a3.85,3.85,0,0,0-3.812-3.813,3.8,3.8,0,0,0-2.38.836l-10.128,8.1a28.909,28.909,0,0,1-17.985,6.307h-22.87a7.623,7.623,0,0,0-7.623,7.623v11.435a7.623,7.623,0,0,0,7.623,7.623h4.014a28.99,28.99,0,0,0-.26,3.811,30.175,30.175,0,0,0,3.045,13.215,3.738,3.738,0,0,0,3.383,2.032h8.848a3.787,3.787,0,0,0,3.085-6.022,15.171,15.171,0,0,1-3.115-9.224,14.417,14.417,0,0,1,.525-3.811h3.345a28.908,28.908,0,0,1,17.984,6.307l10.128,8.1a3.809,3.809,0,0,0,6.191-2.975V212.926a7.561,7.561,0,0,0,0-13.133Z" fill="#2680eb"/>
      <g id="Group_612" data-name="Group 612" transform="translate(1522.29 177.771)">
        <g id="Group_611" data-name="Group 611" clip-path="url(#clip-path)">
          <circle id="Ellipse_90" data-name="Ellipse 90" cx="28.826" cy="28.826" r="28.826" transform="translate(-17.312 -8.211)" fill="#6bb1fe" opacity="0.5"/>
        </g>
      </g>
    </g>
  </g>
</svg>
