<svg xmlns="http://www.w3.org/2000/svg" xmlns:xlink="http://www.w3.org/1999/xlink" width="100" height="100" viewBox="0 0 100 100">
  <defs>
    <clipPath id="clip-path">
      <path id="Path_254" data-name="Path 254" d="M684.678,212.39a8.668,8.668,0,1,0-8.668-8.668A8.676,8.676,0,0,0,684.678,212.39Zm60.677,0a8.668,8.668,0,1,0-8.668-8.668A8.676,8.676,0,0,0,745.355,212.39Zm4.334,4.334h-8.668a8.641,8.641,0,0,0-6.108,2.519,19.811,19.811,0,0,1,10.171,14.817h8.939a4.329,4.329,0,0,0,4.334-4.334v-4.335A8.676,8.676,0,0,0,749.689,216.724Zm-34.673,0a15.169,15.169,0,1,0-15.169-15.169A15.162,15.162,0,0,0,715.017,216.724Zm10.4,4.334h-1.124a20.941,20.941,0,0,1-18.555,0h-1.124a15.607,15.607,0,0,0-15.6,15.6v3.9a6.5,6.5,0,0,0,6.5,6.5H734.52a6.5,6.5,0,0,0,6.5-6.5v-3.9A15.607,15.607,0,0,0,725.418,221.058Zm-30.3-1.815a8.641,8.641,0,0,0-6.108-2.519h-8.668a8.676,8.676,0,0,0-8.668,8.668v4.335a4.329,4.329,0,0,0,4.334,4.334h8.926a19.861,19.861,0,0,1,10.185-14.817Z" transform="translate(-671.676 -186.385)" fill="none"/>
    </clipPath>
  </defs>
  <g id="icon-kesiswaan" transform="translate(-368 -462)">
    <circle id="Ellipse_83" data-name="Ellipse 83" cx="50" cy="50" r="50" transform="translate(368 462)" fill="#d9eeff" opacity="0.7"/>
    <g id="Group_604" data-name="Group 604" transform="translate(-296.676 295.615)">
      <path id="Path_253" data-name="Path 253" d="M684.678,212.39a8.668,8.668,0,1,0-8.668-8.668A8.676,8.676,0,0,0,684.678,212.39Zm60.677,0a8.668,8.668,0,1,0-8.668-8.668A8.676,8.676,0,0,0,745.355,212.39Zm4.334,4.334h-8.668a8.641,8.641,0,0,0-6.108,2.519,19.811,19.811,0,0,1,10.171,14.817h8.939a4.329,4.329,0,0,0,4.334-4.334v-4.335A8.676,8.676,0,0,0,749.689,216.724Zm-34.673,0a15.169,15.169,0,1,0-15.169-15.169A15.162,15.162,0,0,0,715.017,216.724Zm10.4,4.334h-1.124a20.941,20.941,0,0,1-18.555,0h-1.124a15.607,15.607,0,0,0-15.6,15.6v3.9a6.5,6.5,0,0,0,6.5,6.5H734.52a6.5,6.5,0,0,0,6.5-6.5v-3.9A15.607,15.607,0,0,0,725.418,221.058Zm-30.3-1.815a8.641,8.641,0,0,0-6.108-2.519h-8.668a8.676,8.676,0,0,0-8.668,8.668v4.335a4.329,4.329,0,0,0,4.334,4.334h8.926a19.861,19.861,0,0,1,10.185-14.817Z" fill="#2680eb"/>
      <g id="Group_603" data-name="Group 603" transform="translate(671.676 186.385)">
        <g id="Group_602" data-name="Group 602" clip-path="url(#clip-path)">
          <circle id="Ellipse_87" data-name="Ellipse 87" cx="30.947" cy="30.947" r="30.947" transform="translate(-15.532 -11.581)" fill="#6bb1fe" opacity="0.5"/>
        </g>
      </g>
    </g>
  </g>
</svg>
