<svg xmlns="http://www.w3.org/2000/svg" xmlns:xlink="http://www.w3.org/1999/xlink" width="80" height="80" viewBox="0 0 80 80">
  <defs>
    <clipPath id="clip-path">
      <path id="Path_250" data-name="Path 250" d="M201.76,195.161a1.353,1.353,0,0,0,1.35-1.349v-4.5a1.353,1.353,0,0,0-1.35-1.349h-2.249v-5.4a5.4,5.4,0,0,0-5.4-5.4H158.133a5.4,5.4,0,0,0-5.4,5.4v46.776a5.4,5.4,0,0,0,5.4,5.4h35.981a5.4,5.4,0,0,0,5.4-5.4v-5.4h2.249a1.353,1.353,0,0,0,1.35-1.349v-4.5a1.353,1.353,0,0,0-1.35-1.349h-2.249v-7.2h2.249a1.354,1.354,0,0,0,1.35-1.35v-4.5a1.353,1.353,0,0,0-1.35-1.349h-2.249v-7.2Zm-25.636-3.6a7.2,7.2,0,1,1-7.2,7.2A7.2,7.2,0,0,1,176.124,191.563Zm12.593,26.626a2.358,2.358,0,0,1-2.519,2.159H166.049a2.358,2.358,0,0,1-2.519-2.159V216.03c0-3.576,3.384-6.477,7.556-6.477h.562a11.581,11.581,0,0,0,8.95,0h.562c4.171,0,7.556,2.9,7.556,6.477Z" transform="translate(-152.736 -177.17)" fill="none"/>
    </clipPath>
    <clipPath id="clip-path-2">
      <path id="Union_4" data-name="Union 4" d="M2.438,54A2.48,2.48,0,0,1,0,51.469V2.531A2.48,2.48,0,0,1,2.438,0H22.75V14.344a2.493,2.493,0,0,0,2.438,2.531H39V51.469A2.48,2.48,0,0,1,36.562,54ZM22.423,39.513,23.7,42.5a2.371,2.371,0,0,0,.854,1.064,2.132,2.132,0,0,0,1.195.355,2.5,2.5,0,0,0,1.721-.68,2.146,2.146,0,0,0,.754-1.655,2.627,2.627,0,0,0-.256-1.093L20.46,24.474a2.687,2.687,0,0,0-1.11-1.226,3.2,3.2,0,0,0-3.2,0,2.706,2.706,0,0,0-1.1,1.226L7.543,40.488a2.627,2.627,0,0,0-.256,1.093,2.112,2.112,0,0,0,.782,1.655,2.6,2.6,0,0,0,1.75.68,2.2,2.2,0,0,0,1.209-.355A2.339,2.339,0,0,0,11.9,42.5L13.2,39.513ZM25.139,25.83v1.026a.505.505,0,0,0,.494.513h1.976V29.42a.505.505,0,0,0,.494.513h.988a.505.505,0,0,0,.494-.513V27.369h1.976a.505.505,0,0,0,.494-.513V25.83a.505.505,0,0,0-.494-.513H29.585V23.265a.505.505,0,0,0-.494-.513H28.1a.505.505,0,0,0-.494.513v2.052H25.633A.505.505,0,0,0,25.139,25.83Zm-10.17,9.606,2.845-6.589,2.845,6.589ZM26,13.5V0h.619a2.39,2.39,0,0,1,1.727.738l9.943,10.336A2.573,2.573,0,0,1,39,12.857V13.5Z" transform="translate(-0.287 -0.119)" fill="#2680eb" stroke="rgba(0,0,0,0)" stroke-miterlimit="10" stroke-width="1"/>
    </clipPath>
  </defs>
  <g id="icon-admin-ujian" transform="translate(-34 -469)">
    <circle id="Ellipse_84" data-name="Ellipse 84" cx="40" cy="40" r="40" transform="translate(34 469)" fill="#d9eeff" opacity="0.7"/>
    <g id="Group_880" data-name="Group 880" transform="translate(2.287 3.119)">
      <path id="Union_3" data-name="Union 3" d="M2.438,54A2.48,2.48,0,0,1,0,51.469V2.531A2.48,2.48,0,0,1,2.438,0H22.75V14.344a2.493,2.493,0,0,0,2.438,2.531H39V51.469A2.48,2.48,0,0,1,36.562,54ZM22.423,39.513,23.7,42.5a2.371,2.371,0,0,0,.854,1.064,2.132,2.132,0,0,0,1.195.355,2.5,2.5,0,0,0,1.721-.68,2.146,2.146,0,0,0,.754-1.655,2.627,2.627,0,0,0-.256-1.093L20.46,24.474a2.687,2.687,0,0,0-1.11-1.226,3.2,3.2,0,0,0-3.2,0,2.706,2.706,0,0,0-1.1,1.226L7.543,40.488a2.627,2.627,0,0,0-.256,1.093,2.112,2.112,0,0,0,.782,1.655,2.6,2.6,0,0,0,1.75.68,2.2,2.2,0,0,0,1.209-.355A2.339,2.339,0,0,0,11.9,42.5L13.2,39.513ZM25.139,25.83v1.026a.505.505,0,0,0,.494.513h1.976V29.42a.505.505,0,0,0,.494.513h.988a.505.505,0,0,0,.494-.513V27.369h1.976a.505.505,0,0,0,.494-.513V25.83a.505.505,0,0,0-.494-.513H29.585V23.265a.505.505,0,0,0-.494-.513H28.1a.505.505,0,0,0-.494.513v2.052H25.633A.505.505,0,0,0,25.139,25.83Zm-10.17,9.606,2.845-6.589,2.845,6.589ZM26,13.5V0h.619a2.39,2.39,0,0,1,1.727.738l9.943,10.336A2.573,2.573,0,0,1,39,12.857V13.5Z" transform="translate(51.713 478.881)" fill="#2680eb" stroke="rgba(0,0,0,0)" stroke-miterlimit="10" stroke-width="1"/>
      <g id="Mask_Group_7" data-name="Mask Group 7" transform="translate(52 479)" clip-path="url(#clip-path-2)">
        <circle id="Ellipse_113" data-name="Ellipse 113" cx="24.286" cy="24.286" r="24.286" transform="translate(-23.998 -24.109)" fill="#6bb1fe" opacity="0.5"/>
      </g>
    </g>
  </g>
</svg>
