<svg xmlns="http://www.w3.org/2000/svg" xmlns:xlink="http://www.w3.org/1999/xlink" width="100" height="100" viewBox="0 0 100 100">
  <defs>
    <clipPath id="clip-path">
      <path id="Path_256" data-name="Path 256" d="M1055.276,205.75h-9.818v11.782l-3.927-2.614-3.927,2.614V205.75h-9.818a1.969,1.969,0,0,0-1.963,1.963v23.564a1.969,1.969,0,0,0,1.963,1.963h27.491a1.969,1.969,0,0,0,1.964-1.963V207.713A1.969,1.969,0,0,0,1055.276,205.75Zm-45.527-4.493h27.491a1.9,1.9,0,0,0,1.964-1.8V177.806a1.9,1.9,0,0,0-1.964-1.8h-9.818v10.824l-3.927-2.4-3.927,2.4V176h-9.818a1.894,1.894,0,0,0-1.963,1.8v21.647A1.894,1.894,0,0,0,1009.749,201.257Zm9.454,4.493h-9.818v11.782l-3.928-2.614-3.927,2.614V205.75h-9.818a1.969,1.969,0,0,0-1.963,1.963v23.564a1.969,1.969,0,0,0,1.963,1.963H1019.2a1.969,1.969,0,0,0,1.964-1.963V207.713A1.969,1.969,0,0,0,1019.2,205.75Z" transform="translate(-989.749 -176.002)" fill="none"/>
    </clipPath>
  </defs>
  <g id="icon-sarpras" transform="translate(-368 -462)">
    <circle id="Ellipse_83" data-name="Ellipse 83" cx="50" cy="50" r="50" transform="translate(368 462)" fill="#d9eeff" opacity="0.7"/>
    <g id="Group_607" data-name="Group 607" transform="translate(-605.748 306.998)">
      <path id="Path_255" data-name="Path 255" d="M1055.276,205.75h-9.818v11.782l-3.927-2.614-3.927,2.614V205.75h-9.818a1.969,1.969,0,0,0-1.963,1.963v23.564a1.969,1.969,0,0,0,1.963,1.963h27.491a1.969,1.969,0,0,0,1.964-1.963V207.713A1.969,1.969,0,0,0,1055.276,205.75Zm-45.527-4.493h27.491a1.9,1.9,0,0,0,1.964-1.8V177.806a1.9,1.9,0,0,0-1.964-1.8h-9.818v10.824l-3.927-2.4-3.927,2.4V176h-9.818a1.894,1.894,0,0,0-1.963,1.8v21.647A1.894,1.894,0,0,0,1009.749,201.257Zm9.454,4.493h-9.818v11.782l-3.928-2.614-3.927,2.614V205.75h-9.818a1.969,1.969,0,0,0-1.963,1.963v23.564a1.969,1.969,0,0,0,1.963,1.963H1019.2a1.969,1.969,0,0,0,1.964-1.963V207.713A1.969,1.969,0,0,0,1019.2,205.75Z" fill="#2680eb"/>
      <g id="Group_606" data-name="Group 606" transform="translate(989.749 176.002)">
        <g id="Group_605" data-name="Group 605" clip-path="url(#clip-path)">
          <circle id="Ellipse_88" data-name="Ellipse 88" cx="35.221" cy="35.221" r="35.221" transform="translate(-31.027 -26.592)" fill="#6bb1fe" opacity="0.5"/>
        </g>
      </g>
    </g>
  </g>
</svg>
