<svg xmlns="http://www.w3.org/2000/svg" xmlns:xlink="http://www.w3.org/1999/xlink" width="100" height="100" viewBox="0 0 100 100">
  <defs>
    <clipPath id="clip-path">
      <path id="Path_250" data-name="Path 250" d="M213.836,199.592a1.686,1.686,0,0,0,1.682-1.681V192.3a1.687,1.687,0,0,0-1.682-1.681h-2.8V183.9a6.729,6.729,0,0,0-6.726-6.727H159.463a6.729,6.729,0,0,0-6.727,6.727v58.3a6.728,6.728,0,0,0,6.727,6.726h44.844a6.728,6.728,0,0,0,6.726-6.726v-6.727h2.8a1.687,1.687,0,0,0,1.682-1.681V228.18a1.687,1.687,0,0,0-1.682-1.681h-2.8V217.53h2.8a1.687,1.687,0,0,0,1.682-1.682v-5.605a1.686,1.686,0,0,0-1.682-1.681h-2.8v-8.969Zm-31.951-4.484a8.969,8.969,0,1,1-8.969,8.969A8.977,8.977,0,0,1,181.885,195.108Zm15.7,33.184a2.939,2.939,0,0,1-3.139,2.691H169.328a2.939,2.939,0,0,1-3.139-2.691V225.6c0-4.456,4.218-8.072,9.417-8.072h.7a14.434,14.434,0,0,0,11.155,0h.7c5.2,0,9.417,3.616,9.417,8.072Z" transform="translate(-152.736 -177.17)" fill="none"/>
    </clipPath>
  </defs>
  <g id="icon-tata-usaha" transform="translate(-111.506 -144.336)">
    <circle id="Ellipse_84" data-name="Ellipse 84" cx="50" cy="50" r="50" transform="translate(111.506 144.336)" fill="#d9eeff" opacity="0.7"/>
    <g id="Group_598" data-name="Group 598" transform="translate(-22.231 -18.833)">
      <path id="Path_249" data-name="Path 249" d="M213.836,199.592a1.686,1.686,0,0,0,1.682-1.681V192.3a1.687,1.687,0,0,0-1.682-1.681h-2.8V183.9a6.729,6.729,0,0,0-6.726-6.727H159.463a6.729,6.729,0,0,0-6.727,6.727v58.3a6.728,6.728,0,0,0,6.727,6.726h44.844a6.728,6.728,0,0,0,6.726-6.726v-6.727h2.8a1.687,1.687,0,0,0,1.682-1.681V228.18a1.687,1.687,0,0,0-1.682-1.681h-2.8V217.53h2.8a1.687,1.687,0,0,0,1.682-1.682v-5.605a1.686,1.686,0,0,0-1.682-1.681h-2.8v-8.969Zm-31.951-4.484a8.969,8.969,0,1,1-8.969,8.969A8.977,8.977,0,0,1,181.885,195.108Zm15.7,33.184a2.939,2.939,0,0,1-3.139,2.691H169.328a2.939,2.939,0,0,1-3.139-2.691V225.6c0-4.456,4.218-8.072,9.417-8.072h.7a14.434,14.434,0,0,0,11.155,0h.7c5.2,0,9.417,3.616,9.417,8.072Z" transform="translate(0 0)" fill="#2680eb"/>
      <g id="Group_597" data-name="Group 597" transform="translate(152.736 177.17)">
        <g id="Group_596" data-name="Group 596" clip-path="url(#clip-path)">
          <circle id="Ellipse_85" data-name="Ellipse 85" cx="33.78" cy="33.78" r="33.78" transform="translate(-34.783 -26.199)" fill="#6bb1fe" opacity="0.5"/>
        </g>
      </g>
    </g>
  </g>
</svg>
